<?xml version="1.0" standalone="no"?><!DOCTYPE svg PUBLIC "-//W3C//DTD SVG 1.1//EN" "http://www.w3.org/Graphics/SVG/1.1/DTD/svg11.dtd"><svg t="1615341409629" class="icon" viewBox="0 0 1024 1024" version="1.1" xmlns="http://www.w3.org/2000/svg" p-id="3019" xmlns:xlink="http://www.w3.org/1999/xlink" width="200" height="200"><defs><style type="text/css"></style></defs><path d="M749.2 254.6C690.8 177 606.2 128 512 128c-94.2 0-178.8 49-237.2 126.6 12.8 31.2 31.6 60 56.2 84.6 48.4 48.4 112.6 75 181 75s132.6-26.6 181-75c24.6-24.6 43.6-53.2 56.2-84.6z" p-id="3020"></path><path d="M244 300s-7.6-3.2-11.8-6.6c-4.2-3.4-10-9.8-13-16.8 10.8-22.6 2.4-50-19.8-62.6-23.6-13.2-53.8-4.4-66.2 20-9 17.8-5.8 39.6 7.6 54.2 3.6 3.8 7.4 6.8 11.4 9.2 5.6 3.2 9.8 8 12.8 13.6 5.4 10.4 12.8 21.4 22.2 29.2 8.4 7 17.6 14.2 30.4 21.4-14.4 40.6-23.2 84.6-25 130.8-22 0.4-37.2 4.2-51 8.2-8.4 2.4-16.4 6.8-23.6 11.8-2-0.2-3.8-0.4-5.8-0.4-27.6 0-49.6 23.2-48 51.2 1.4 23.6 20.6 43 44.4 44.8 22 1.6 41.2-11.8 48.6-31 4-10.6 13.4-18.4 24.8-19.8 3.8-0.4 7.8-0.8 12.4-0.8 6.4 66 26.6 127 57.2 178.4-28.4 22-45.8 46-53.2 72.6 0 0-1.6 0.8-3.8 2.8-2 1.6-3.8 3.2-5.6 5.2-17.8 19.8-16.2 50 3.6 67.8 19.8 17.8 50 16.2 67.8-3.6 12.4-13.8 15.2-32.6 9.2-49-4.4-12-1.4-25.4 7.8-34 3.2-3 7-6.2 11.4-9.8 54.2 63.4 118.8 104 199.4 108.8V465.8C381.6 460 288.8 390.6 244 300z m668 212.2c-2 0-4 0.2-5.8 0.4-7.2-5-15.4-9.2-23.6-11.8-13.8-4-28.8-7.8-51-8.2-2-46.2-10.8-90.4-25-130.8 12.8-7.2 22-14.4 30.4-21.4 9.8-8.2 17.4-20 23-30.6 2.6-5 6.6-9 11.6-11.8 0 0 0.2 0 0.2-0.2 23.2-13 31.4-42.2 18.4-65.4-13-23.2-42.2-31.4-65.4-18.4-22.2 12.4-30.6 39.8-19.8 62.6-3.2 6.8-6.8 11.4-13 16.8-4.6 4-11.8 8.6-11.8 8.6-44.8 90.6-137.6 158-244 163.8V896c80.6-4.8 145.2-45.6 199.4-108.8 4.2 3.4 7.8 6.4 10.8 9.2 9.6 8.8 12.8 22.6 8.4 35-6 16.2-3 35 9.4 48.6 17.8 19.8 48 21.4 67.8 3.6 19.8-17.8 21.4-48 3.6-67.8-1.8-2-3.6-3.6-5.6-5.2-2.2-1.8-3.8-2.8-3.8-2.8-7.4-26.6-24.8-50.6-53.2-72.6 30.6-51.4 50.8-112.4 57.2-178.4 4.2 0 8.2 0.4 11.8 0.8 11.8 1.4 21.4 9.4 25.8 20.4 7.4 18.8 26.4 31.8 48.2 30.2 23.6-1.8 42.8-21 44.4-44.8 1.2-28-20.8-51.2-48.4-51.2z" p-id="3021"></path></svg>